# Blender 3.3.1
# www.blender.org
mtllib Arrow.mtl
o Cube
v -0.981113 -0.350278 0.822690
v -0.981113 0.350278 0.822690
v -0.981113 -0.350278 -0.822690
v -0.981113 0.350278 -0.822690
v 0.795208 -0.455289 1.287267
v 0.795208 0.455289 1.287267
v 0.795208 -0.455289 -1.287267
v 0.795208 0.455289 -1.287267
v -2.841877 0.000000 0.000000
v -0.681479 -0.473953 0.000000
v -0.681479 0.438179 0.000000
v 0.869636 -0.580577 0.000000
v 0.869636 0.717959 0.000000
vn -0.1988 0.9800 -0.0000
vn -0.2530 -0.0000 -0.9675
vn 0.9983 -0.0000 0.0577
vn -0.2530 -0.0000 0.9675
vn -0.0775 -0.9916 0.1033
vn -0.1329 0.9813 0.1395
vn -0.2143 -0.9768 -0.0000
vn -0.4044 -0.0000 -0.9146
vn -0.4044 -0.0000 0.9146
vn -0.1329 0.9813 -0.1395
vn -0.0775 -0.9916 -0.1033
vn 0.9983 -0.0000 -0.0577
vt 0.125000 0.750000
vt 0.375000 1.000000
vt 0.875000 0.750000
vt 0.625000 1.000000
vt 0.375000 0.250000
vt 0.125000 0.500000
vt 0.625000 0.250000
vt 0.875000 0.500000
vt 0.375000 0.750000
vt 0.625000 0.750000
vt 0.375000 0.500000
vt 0.625000 0.500000
vt 0.875000 0.750000
vt 0.125000 0.500000
vt 0.625000 0.250000
vt 0.375000 1.000000
vt 0.125000 0.625000
vt 0.875000 0.625000
vt 0.375000 0.625000
vt 0.625000 0.625000
s 0
f 2/3/1 11/18/1 4/8/1 9/13/1
f 3/5/2 4/7/2 8/12/2 7/11/2
f 12/19/3 13/20/3 6/10/3 5/9/3
f 5/9/4 6/10/4 2/4/4 1/2/4
f 10/17/5 12/19/5 5/9/5 1/1/5
f 13/20/6 11/18/6 2/3/6 6/10/6
f 3/6/7 10/17/7 1/1/7 9/14/7
f 4/7/8 3/5/8 9/15/8
f 1/2/9 2/4/9 9/16/9
f 8/12/10 4/8/10 11/18/10 13/20/10
f 3/6/11 7/11/11 12/19/11 10/17/11
f 7/11/12 8/12/12 13/20/12 12/19/12
